<?xml version="1.0" standalone="no"?>
<!DOCTYPE svg PUBLIC "-//W3C//DTD SVG 20010904//EN"
 "http://www.w3.org/TR/2001/REC-SVG-20010904/DTD/svg10.dtd">
<svg version="1.0" xmlns="http://www.w3.org/2000/svg"
 width="920.000000pt" height="727.000000pt" viewBox="0 0 920.000000 727.000000"
 preserveAspectRatio="xMidYMid meet">

<g transform="translate(0.000000,727.000000) scale(0.100000,-0.100000)"
fill="#000000" stroke="none">
<path d="M4439 7265 c-3 -2 -81 -11 -175 -19 -227 -21 -556 -85 -719 -141 -22
-7 -64 -21 -94 -30 -171 -52 -524 -213 -687 -313 -349 -213 -601 -422 -871
-721 -102 -112 -262 -322 -337 -441 -26 -41 -63 -100 -82 -130 -40 -63 -192
-368 -225 -450 -132 -336 -223 -695 -248 -990 -7 -69 -16 -161 -22 -205 -22
-158 7 -592 57 -850 40 -210 94 -413 145 -550 50 -135 91 -238 99 -253 4 -9
42 -84 83 -167 180 -364 380 -640 681 -941 94 -94 229 -216 299 -273 649 -515
1436 -791 2261 -791 853 0 1631 276 2306 818 138 111 421 397 535 542 388 490
646 1062 744 1652 40 242 46 318 45 633 0 270 -3 330 -23 465 -64 432 -169
777 -347 1134 -186 373 -380 642 -684 947 -227 228 -407 371 -715 565 -57 36
-313 168 -390 201 -345 149 -744 255 -1070 283 -71 6 -160 15 -197 20 -68 10
-361 14 -369 5z m3105 -2267 c141 -307 217 -564 272 -923 34 -220 28 -764 -11
-960 -8 -38 -19 -99 -25 -135 -17 -103 -84 -340 -133 -470 -169 -450 -413
-828 -751 -1165 -488 -486 -1047 -777 -1736 -904 -160 -30 -311 -41 -551 -41
-184 0 -507 22 -530 36 -5 3 -48 12 -96 20 -239 41 -565 151 -813 275 -452
225 -870 575 -1168 981 -40 54 -72 102 -72 107 0 5 55 40 123 79 67 38 176
100 242 139 66 38 242 139 390 225 149 85 326 188 395 228 208 121 330 190
335 190 2 0 46 -43 97 -96 230 -239 485 -378 813 -445 335 -68 711 -8 1017
162 316 176 568 467 692 800 49 132 86 326 93 479 7 174 -23 378 -83 547 l-21
63 106 61 c58 34 167 96 241 139 178 101 953 550 1055 610 44 27 83 48 87 49
4 1 18 -23 32 -51z m-2672 -307 c246 -61 454 -198 612 -404 52 -68 156 -257
156 -284 0 -7 9 -39 19 -70 27 -80 41 -183 41 -303 0 -289 -102 -545 -300
-754 -244 -257 -603 -378 -965 -326 -349 51 -684 310 -826 641 -126 291 -122
622 9 901 114 244 324 446 568 548 220 91 452 109 686 51z"/>
</g>
</svg>
