<?xml version="1.0" standalone="no"?>
<!DOCTYPE svg PUBLIC "-//W3C//DTD SVG 20010904//EN"
 "http://www.w3.org/TR/2001/REC-SVG-20010904/DTD/svg10.dtd">
<svg version="1.0" xmlns="http://www.w3.org/2000/svg"
 width="640.000000pt" height="236.000000pt" viewBox="0 0 640.000000 236.000000"
 preserveAspectRatio="xMidYMid meet">

<g transform="translate(0.000000,236.000000) scale(0.100000,-0.100000)"
fill="#000000" stroke="none">
<path d="M3494 2327 c-29 -15 -107 -98 -262 -277 l-220 -255 34 -37 c19 -21
34 -42 34 -48 0 -5 -18 -19 -39 -30 l-39 -19 -109 96 c-59 53 -140 125 -180
160 l-72 64 -48 -27 c-26 -15 -56 -37 -65 -48 -17 -21 -18 -20 -18 20 l0 41
-277 -88 c-153 -48 -308 -102 -345 -120 l-67 -32 5 -46 c2 -25 6 -95 10 -154
l6 -109 35 7 c19 3 40 8 48 11 8 4 14 -6 17 -29 l4 -34 -86 -6 c-91 -6 -182
-33 -241 -71 l-36 -24 0 101 c0 81 -5 114 -22 159 -61 158 -221 288 -406 329
-91 20 -331 18 -435 -5 -96 -21 -242 -70 -345 -116 -113 -51 -272 -151 -324
-205 l-49 -50 138 -230 c77 -126 141 -234 143 -240 2 -5 27 1 56 14 29 12 54
21 56 19 2 -2 105 -234 229 -517 124 -283 228 -516 231 -519 2 -3 100 26 217
63 157 50 228 78 269 106 l56 38 -43 163 c-24 90 -44 167 -44 172 0 4 18 -15
39 -44 147 -196 402 -222 624 -64 26 19 49 34 51 34 2 0 6 -35 10 -78 l7 -78
207 31 c165 25 218 37 260 58 l52 27 0 130 c0 72 2 130 4 130 1 0 173 -83 380
-185 l377 -185 50 25 49 25 0 183 0 183 28 2 c39 3 88 20 156 54 32 16 60 28
62 26 2 -3 -3 -44 -12 -92 -8 -49 -13 -91 -10 -94 4 -3 108 -22 233 -42 l228
-37 43 25 c24 13 44 23 46 21 1 -2 15 -25 30 -51 15 -27 30 -48 34 -48 4 0 21
9 37 20 17 11 33 20 36 20 4 0 10 -31 14 -68 l7 -68 264 -47 264 -47 51 25 51
26 -7 70 c-7 65 -6 69 13 69 11 0 48 9 81 19 56 17 61 18 57 3 -11 -39 -18
-172 -9 -172 10 0 248 -35 310 -45 l32 -6 3 -71 3 -71 179 -58 179 -57 53 26
53 26 236 712 c129 392 235 717 235 722 0 6 -109 37 -242 70 l-243 60 -37 -19
c-47 -24 -45 -24 -53 10 -7 33 24 24 -390 115 l-200 44 -54 -30 -54 -31 7
-147 7 -147 -63 -5 c-72 -6 -163 -36 -208 -68 -17 -12 -34 -20 -37 -16 -3 3
-25 126 -49 273 -24 148 -43 269 -44 271 0 1 -89 2 -197 2 l-196 0 -54 -30
c-52 -30 -54 -30 -205 -30 -147 0 -155 -1 -205 -27 l-52 -28 -11 -67 -12 -67
-64 44 c-62 43 -140 72 -244 92 l-45 8 167 90 c92 50 168 94 168 98 0 17 -231
347 -243 347 -7 -1 -31 -11 -53 -23z m111 -216 c30 -41 55 -78 55 -83 0 -4
-80 -48 -179 -97 -177 -89 -201 -95 -201 -54 0 17 249 315 260 311 5 -2 34
-36 65 -77z m1091 -557 l41 -266 -43 -65 c-63 -92 -87 -182 -82 -292 3 -74 9
-99 36 -153 35 -71 94 -136 158 -174 31 -18 43 -32 46 -54 3 -17 3 -32 1 -33
-4 -4 -282 39 -288 44 -2 3 -20 113 -40 244 -20 132 -37 244 -39 250 -1 5 -25
-49 -53 -120 -28 -72 -54 -130 -58 -130 -4 0 -41 73 -83 163 -45 98 -78 158
-83 150 -3 -7 -19 -95 -35 -195 -28 -182 -28 -183 -53 -183 -29 0 -242 38
-248 44 -2 2 5 54 15 116 l19 112 59 59 58 59 -42 43 -41 42 44 265 c25 146
45 268 45 273 0 6 279 11 280 5 19 -115 69 -349 73 -338 3 8 19 96 37 195 17
99 33 186 35 193 3 8 33 12 103 12 l98 0 40 -266z m-2291 119 c4 -76 10 -157
14 -180 l6 -42 108 152 c59 84 117 164 130 179 l22 27 127 -122 127 -122 -174
-184 c-96 -101 -175 -187 -175 -191 0 -4 72 -35 161 -70 150 -60 163 -67 190
-106 67 -98 180 -172 310 -202 l69 -16 0 -118 c0 -65 -2 -118 -5 -118 -3 0
-194 95 -425 210 -231 116 -422 210 -425 210 -3 0 -5 -99 -5 -219 0 -168 -3
-220 -13 -224 -25 -9 -198 -30 -204 -24 -3 4 -9 46 -14 93 -7 80 -6 91 15 133
23 45 39 104 51 187 12 82 -31 222 -95 304 -26 33 -28 44 -39 195 -14 191 -17
209 -36 201 -7 -2 -30 -8 -49 -12 l-36 -6 0 49 0 49 173 51 c94 28 175 51 178
52 4 1 10 -61 14 -136z m-1256 72 c123 -29 242 -119 291 -220 53 -108 35 -263
-46 -396 -45 -75 -150 -187 -218 -234 -31 -21 -56 -43 -56 -49 0 -6 32 -132
70 -280 39 -148 70 -271 70 -272 0 -5 -232 -75 -236 -71 -4 4 -435 963 -469
1044 l-14 32 -60 -26 c-34 -15 -63 -24 -65 -22 -12 12 -166 279 -166 288 0 12
170 99 272 140 214 85 444 109 627 66z m2390 -56 c68 -15 142 -54 189 -99 l43
-41 -53 -58 c-29 -32 -109 -118 -178 -191 l-125 -133 56 6 c69 7 111 27 165
79 l41 40 92 -83 c50 -45 90 -87 88 -93 -7 -23 -146 -118 -216 -147 -299 -125
-577 -40 -651 199 -60 193 26 380 218 476 99 50 232 68 331 45z m2001 -44 c96
-19 177 -38 181 -43 4 -4 32 -131 64 -282 54 -255 74 -333 75 -288 0 24 117
499 124 506 7 7 267 -47 279 -58 6 -5 -385 -1220 -398 -1238 -2 -3 -195 55
-201 60 -2 3 -6 121 -9 264 -3 142 -9 297 -12 344 -7 98 -2 117 -58 -200 -20
-113 -38 -212 -41 -221 -4 -14 -14 -14 -108 0 -58 9 -107 19 -111 22 -3 4 -3
41 1 82 6 72 8 77 56 129 27 29 68 91 91 137 l42 84 0 121 c0 112 -2 125 -27
174 -15 29 -41 70 -58 91 -30 36 -31 42 -25 102 3 35 8 78 11 94 4 29 1 32
-38 42 l-43 12 3 50 c3 32 9 51 16 51 7 0 91 -16 186 -35z m-285 -304 c107
-47 166 -132 173 -252 7 -126 -37 -228 -143 -328 -75 -71 -148 -103 -251 -109
-143 -8 -243 47 -301 166 -24 49 -28 69 -27 137 0 69 5 91 32 148 55 119 169
218 291 253 64 19 165 12 226 -15z m-2385 -87 c0 -42 -4 -74 -8 -72 -4 2 -31
12 -60 23 l-52 19 52 53 c29 29 56 53 60 53 4 0 8 -34 8 -76z m-865 9 c73 -24
155 -109 179 -186 29 -93 19 -196 -27 -291 -85 -171 -269 -282 -433 -261 -67
8 -165 56 -200 98 -126 149 -102 371 57 529 120 120 271 160 424 111z"/>
<path d="M990 1416 c-19 -7 -36 -19 -38 -27 -3 -18 106 -380 118 -393 12 -12
110 62 145 108 85 112 59 266 -52 312 -40 17 -126 17 -173 0z m138 -132 c15
-18 22 -38 22 -67 1 -41 1 -42 15 -17 8 14 14 21 15 17 0 -14 -28 -62 -47 -79
-19 -17 -20 -16 -46 72 -15 49 -27 94 -27 100 0 18 42 1 68 -26z"/>
<path d="M3295 1516 c-35 -16 -82 -60 -100 -96 -36 -71 -20 -172 35 -225 30
-29 31 -29 49 -10 119 128 242 278 237 290 -17 45 -154 71 -221 41z m96 -103
c-16 -21 -52 -63 -80 -93 l-49 -55 -11 29 c-14 36 -5 88 20 115 15 16 32 21
74 21 30 0 57 5 60 10 3 6 9 10 11 10 3 0 -8 -17 -25 -37z"/>
<path d="M5005 1271 c-150 -69 -135 -264 24 -319 129 -45 269 66 245 193 -6
36 -24 48 -24 17 0 -10 -14 -31 -31 -48 -25 -24 -39 -29 -79 -29 -40 0 -54 5
-79 29 -54 52 -49 115 15 156 l29 20 -30 0 c-16 0 -48 -9 -70 -19z"/>
<path d="M1808 1190 c-160 -48 -183 -244 -38 -317 139 -71 302 37 274 182 -6
36 -24 48 -24 18 -1 -39 -59 -83 -108 -83 -62 0 -122 52 -122 105 0 31 29 72
62 88 31 15 31 16 8 16 -14 0 -37 -4 -52 -9z"/>
<path d="M6029 203 c5 -37 6 -37 9 -8 2 16 9 33 15 37 8 5 4 8 -8 8 -18 0 -20
-5 -16 -37z"/>
<path d="M6071 205 c1 -40 1 -40 11 -12 7 21 7 32 -1 40 -8 8 -11 0 -10 -28z"/>
<path d="M6116 225 c-3 -8 -1 -25 4 -37 8 -20 9 -18 9 15 1 39 -3 47 -13 22z"/>
<path d="M6090 184 c0 -8 5 -12 10 -9 6 4 8 11 5 16 -9 14 -15 11 -15 -7z"/>
</g>
</svg>
